# AST/ASF file generated using VICON BodyLanguage
# -----------------------------------------------
:version 1.10
:name VICON
:units
  mass 1.0
  length 0.45
  angle deg
:documentation
   .ast/.asf automatically generated from VICON data using
   VICON BodyBuilder and BodyLanguage model FoxedUp or BRILLIANT.MOD
:root
   order TX TY TZ RX RY RZ
   axis XYZ
   position 0 0 0  
   orientation 0 0 0 
:bonedata
  begin
     id 1 
     name lhipjoint
     direction 0.627457 -0.725269 0.283342 
     length 2.53237 
     axis 0 0 0  XYZ
  end
  begin
     id 2 
     name lfemur
     direction 0.34202 -0.939693 0  
     length 7.32496  
     axis 0 0 20  XYZ
    dof rx ry rz
    limits (-160.0 20.0)
           (-70.0 70.0)
           (-60.0 70.0)
  end
  begin
     id 3 
     name ltibia
     direction 0.34202 -0.939693 0   
     length 7.69674   
     axis 0 0 20   XYZ
    dof rx
    limits (-10.0 170.0)
  end
  begin
     id 4 
     name lfoot
     direction 0.127289 -0.349722 0.928166   
     length 1.8612   
     axis -90 7.62852e-016 20   XYZ
    dof rx rz
    limits (-45.0 90.0)
           (-70.0 20.0)
  end
  begin
     id 5 
     name ltoes
     direction 1.53561e-011 -4.21864e-011 1   
     length 0.925608   
     axis -90 7.62852e-016 20   XYZ
    dof rx
    limits (-90.0 20.0)
  end
  begin
     id 6 
     name rhipjoint
     direction -0.609094 -0.738725 0.288599   
     length 2.48624  
     axis 0 0 0  XYZ 
  end
  begin
     id 7 
     name rfemur
     direction -0.34202 -0.939693 0   
     length 7.44259   
     axis 0 0 -20   XYZ
    dof rx ry rz
    limits (-160.0 20.0)
           (-70.0 70.0)
           (-70.0 60.0)
  end
  begin
     id 8 
     name rtibia
     direction -0.34202 -0.939693 0   
     length 7.7781   
     axis 0 0 -20   XYZ
    dof rx
    limits (-10.0 170.0)
 end
 begin
     id 9 
     name rfoot
     direction -0.107015 -0.294021 0.949789   
     length 2.14741  
     axis -90 -7.62852e-016 -20   XYZ
    dof rx rz
    limits (-45.0 90.0)
           (-20.0 70.0)
  end
  begin
     id 10 
     name rtoes
     direction -1.53497e-011 -4.21924e-011 1   
     length 1.0706   
     axis -90 -7.62852e-016 -20   XYZ
    dof rx
    limits (-90.0 20.0)
  end
  begin
     id 11 
     name lowerback
     direction -0.0142066 0.998112 -0.0597545   
     length 1.86627   
     axis 0 0 0   XYZ
    dof rx ry rz
    limits (-20.0 45.0)
           (-30.0 30.0)
           (-30.0 30.0)
  end
  begin
     id 12 
     name upperback
     direction 0.00547294 0.999744 0.0219437   
     length 1.86272   
     axis 0 0 0   XYZ
    dof rx ry rz
    limits (-20.0 45.0)
           (-30.0 30.0)
           (-30.0 30.0)
  end
  begin
     id 13 
     name thorax
     direction 0.0116162 0.998704 0.0495538   
     length 1.8703   
     axis 0 0 0   XYZ
    dof rx ry rz
    limits (-20.0 45.0)
           (-30.0 30.0)
           (-30.0 30.0)
  end
  begin
     id 14 
     name lowerneck
     direction -0.0106574 0.998739 0.0490586   
     length 1.8074   
     axis 0 0 0   XYZ
    dof rx ry rz
    limits (-20.0 45.0)
           (-30.0 30.0)
           (-30.0 30.0)
  end
  begin
     id 15 
     name upperneck
     direction 0.030527 0.976587 -0.212944   
     length 1.80681   
     axis 0 0 0   XYZ
    dof rx ry rz
    limits (-20.0 45.0)
           (-30.0 30.0)
           (-30.0 30.0)
  end
  begin
     id 16
     name head
     direction 0.00869225 0.997035 -0.0764531  
     length 1.8313  
     axis 0 0 0   XYZ
    dof rx ry rz
    limits (-20.0 45.0)
           (-30.0 30.0)
           (-30.0 30.0)
  end
  begin
     id 17 
     name lclavicle
     direction 0.915958 0.399447 0.0382386  
     length 3.78965  
     axis 0 0 0   XYZ
    dof ry rz
    limits (-20.0 10.0)
           (0.0 20.0)
  end
  begin
     id 18 
     name lhumerus
     direction 1 -4.48967e-011 3.19303e-027   
     length 4.78095   
     axis -180 -30 -90   XYZ
    dof rx ry rz
    limits (-60.0 90.0)
           (-90.0 90.0)
           (-90.0 90.0)
  end
  begin
     id 19
     name lradius
     direction 1 -4.48967e-011 -3.77974e-027   
     length 3.58615   
     axis -180 -30 -90   XYZ
    dof rx
    limits (-10.0 170.0)
  end
  begin
     id 20
     name lwrist
     direction 1 -4.48927e-011 1.2807e-027   
     length 1.79307   
     axis 1.91374e-015 90 90   XYZ
    dof ry
    limits (-180.0 0.0)
 end
  begin
     id 21 
     name lhand
     direction 1 -4.49036e-011 2.5614e-027   
     length 0.659812   
     axis -1.63439e-015 90 90   XYZ
    dof rx rz
    limits (-90.0 90.0)
           (-45.0 45.0)
  end
  begin
     id 22 
     name lfingers
     direction 1 -4.49052e-011 5.1228e-027   
     length 0.531957   
     axis -3.26879e-015 90 90   XYZ
    dof rx
    limits (0.0 90.0)
  end
  begin
     id 23
     name lthumb
     direction 0.707107 -6.35012e-011 0.707107   
     length 0.763787   
     axis -90 45 2.85299e-015   XYZ
    dof rx rz
    limits (-45.0 45.0)
           (-45.0 45.0)
  end
  begin
     id 24 
     name rclavicle
     direction -0.895351 0.435135 0.0948887   
     length 3.70497  
     axis 0 0 0   XYZ 
    dof ry rz
    limits (-10.0 20.0)
           (-20.0 0.0)
  end
  begin
     id 25 
     name rhumerus
     direction -1 -4.48971e-011 2.38946e-027  
     length 4.48913   
     axis -180 30 90   XYZ
    dof rx ry rz
    limits (-90.0 60.0)
           (-90.0 90.0)
           (-90.0 90.0)
  end
  begin
     id 26 
     name rradius
     direction -1 -4.4895e-011 4.38668e-027   
     length 3.7051   
     axis -180 30 90   XYZ
    dof rx
    limits (-10.0 170.0)
  end
  begin
     id 27 
     name rwrist
     direction -1 -4.49007e-011 1.2807e-027   
     length 1.85255   
     axis 1.91374e-015 -90 -90   XYZ
    dof ry
    limits (-180.0 0.0)
  end
  begin
     id 28
     name rhand
     direction -1 -4.48851e-011 2.5614e-027   
     length 0.449136   
     axis -1.63439e-015 -90 -90   XYZ
    dof rx rz
    limits (-90.0 90.0)
           (-45.0 45.0)
  end
  begin
     id 29
     name rfingers
     direction -1 -4.49128e-011 5.1228e-027   
     length 0.362105   
     axis -3.26879e-015 -90 -90   XYZ
    dof rx
    limits (0.0 90.0)
  end
  begin
     id 30
     name rthumb
     direction -0.707107 -6.34851e-011 0.707107   
     length 0.519912   
     axis -90 -45 -2.85299e-015   XYZ
    dof rx rz
    limits (-45.0 45.0)
           (-45.0 45.0)
  end
:hierarchy
  begin
    root lhipjoint rhipjoint lowerback
    lhipjoint lfemur
    lfemur ltibia
    ltibia lfoot
    lfoot ltoes
    rhipjoint rfemur
    rfemur rtibia
    rtibia rfoot
    rfoot rtoes
    lowerback upperback
    upperback thorax
    thorax lowerneck lclavicle rclavicle
    lowerneck upperneck
    upperneck head
    lclavicle lhumerus
    lhumerus lradius
    lradius lwrist
    lwrist lhand lthumb
    lhand lfingers
    rclavicle rhumerus
    rhumerus rradius
    rradius rwrist
    rwrist rhand rthumb
    rhand rfingers
  end

#!OML:ASF I:\Actors\actors\Patient Classification 2\Patient 1\Session 1\actor1.ASF
:FULLY-SPECIFIED
:DEGREES
1
root -0.904993 18.6751 6.11792 1.19623 -4.12865 -4.39949
lowerback 4.47917 1.50976 1.7591
upperback -2.98262 2.19628 1.06387
thorax -5.58277 1.04125 -0.0843241
lowerneck -9.94662 -0.62388 1.99861
upperneck 25.9089 -1.35658 0.202428
head 9.82595 -0.414912 -0.424317
rclavicle 1.32689e-014 1.43125e-014
rhumerus -51.5909 -5.23827 -85.0676
rradius 42.0149
rwrist 17.6925
rhand -9.72354 -29.9286
rfingers 7.12502
rthumb 16.2499 -59.2676
lclavicle 1.32689e-014 1.43125e-014
lhumerus -45.3984 4.96544 87.1193
lradius 37.2054
lwrist -13.8494
lhand -4.38879 -24.8522
lfingers 7.12502
lthumb 21.3806 3.98814
rfemur 0 0 0
rtibia 0
rfoot 0 0
rtoes 0
lfemur -4.10169 -6.08756 -10.7853
ltibia 23.3258
lfoot -25.5132 15.4826
ltoes -53.706
2
root -0.90504 18.6747 6.11791 1.19559 -4.11936 -4.43749
lowerback 4.49473 1.50447 1.8066
upperback -2.97878 2.1934 1.07467
thorax -5.58643 1.03818 -0.0998171
lowerneck -9.95306 -0.61439 1.98309
upperneck 25.8924 -1.34218 0.211559
head 9.82158 -0.408854 -0.416822
rclavicle -1.41634e-015 2.98177e-015
rhumerus -51.5691 -5.17623 -85.0913
rradius 42.0141
rwrist 17.6677
rhand -10.5725 -29.8911
rfingers 7.12502
rthumb 15.4323 -59.295
lclavicle -1.41634e-015 2.98177e-015
lhumerus -45.3654 4.95923 87.144
lradius 37.1893
lwrist -13.842
lhand -4.42698 -24.843
lfingers 7.12502
lthumb 21.3439 4.00155
rfemur 0 0 0
rtibia 0
rfoot 0 0
rtoes 0
lfemur -4.10995 -6.05358 -10.7381
ltibia 23.3453
lfoot -25.4968 15.4777
ltoes -53.7657
3
root -0.905296 18.6746 6.11834 1.19923 -4.1101 -4.46459
lowerback 4.48249 1.50482 1.82423
upperback -2.97441 2.19526 1.0866
thorax -5.57467 1.03881 -0.0970375
lowerneck -9.95419 -0.61358 1.9533
upperneck 25.8959 -1.34088 0.234604
head 9.82343 -0.408485 -0.403559
rclavicle -2.84511e-015 1.39149e-015
rhumerus -51.5542 -5.15329 -85.0965
rradius 42.0043
rwrist 17.6585
rhand -10.5899 -29.8644
rfingers 7.12502
rthumb 15.4155 -59.2696
lclavicle -2.84511e-015 1.39149e-015
lhumerus -45.2826 5.02861 87.1293
lradius 37.0828
lwrist -13.9371
lhand -4.42646 -24.9198
lfingers 7.12502
lthumb 21.3444 3.92464
rfemur 0 0 0
rtibia 0
rfoot 0 0
rtoes 0
lfemur -4.12391 -6.02369 -10.7028
ltibia 23.3666
lfoot -25.4985 15.4837
ltoes -53.8583
4
root -0.904688 18.6744 6.11885 1.20877 -4.09994 -4.4774
lowerback 4.46574 1.50439 1.83224
upperback -2.98101 2.19525 1.0928
thorax -5.57198 1.03864 -0.0946887
lowerneck -9.9468 -0.618182 1.96021
upperneck 25.9075 -1.34472 0.219118
head 9.82594 -0.411211 -0.410584
rclavicle -8.65956e-015 -3.57812e-015
rhumerus -51.5592 -5.14834 -85.1008
rradius 41.9898
rwrist 17.6587
rhand -10.623 -29.9019
rfingers 7.12502
rthumb 15.3836 -59.3096
lclavicle -8.65956e-015 -3.57812e-015
lhumerus -45.1542 5.18365 87.0563
lradius 36.8576
lwrist -14.1003
lhand -4.43426 -25.0465
lfingers 7.12502
lthumb 21.3369 3.79883
rfemur 0 0 0
rtibia 0
rfoot 0 0
rtoes 0
lfemur -4.14103 -6.10432 -10.6971
ltibia 23.3818
lfoot -25.5328 15.4922
ltoes -53.7435
5
root -0.904003 18.6746 6.11844 1.22499 -4.09739 -4.50288
lowerback 4.47138 1.50821 1.85248
upperback -2.99097 2.20282 1.10574
thorax -5.58539 1.0417 -0.0935929
lowerneck -9.93412 -0.622331 1.97111
upperneck 25.8848 -1.34873 0.206075
head 9.81511 -0.413725 -0.417271
rclavicle 2.21645e-014 1.78906e-015
rhumerus -51.5443 -5.12138 -85.1044
rradius 41.9671
rwrist 17.6011
rhand -10.686 -29.9727
rfingers 7.12502
rthumb 15.3229 -59.385
lclavicle 2.21645e-014 1.78906e-015
lhumerus -45.0918 5.25496 87.0391
lradius 36.7545
lwrist -14.1828
lhand -4.47087 -25.11
lfingers 7.12502
lthumb 21.3017 3.73928
rfemur 0 0 0
rtibia 0
rfoot 0 0
rtoes 0
lfemur -4.16421 -6.16577 -10.6769
ltibia 23.3892
lfoot -25.5626 15.5306
ltoes -53.7079
6
root -0.904279 18.6752 6.11853 1.24088 -4.10286 -4.49996
lowerback 4.47207 1.51036 1.83689
upperback -3.00077 2.20503 1.10892
thorax -5.59675 1.04332 -0.0819449
lowerneck -9.92977 -0.623148 1.93298
upperneck 25.8822 -1.35331 0.249823
head 9.81396 -0.414701 -0.395974
rclavicle 5.479e-015 2.88238e-014
rhumerus -51.531 -5.1134 -85.1016
rradius 41.948
rwrist 17.5526
rhand -9.32461 -30.1213
rfingers 7.12502
rthumb 16.6339 -59.4285
lclavicle 5.479e-015 2.88238e-014
lhumerus -45.1036 5.22752 87.0693
lradius 36.7808
lwrist -14.168
lhand -4.50607 -25.1565
lfingers 7.12502
lthumb 21.2679 3.69658
rfemur 0 0 0
rtibia 0
rfoot 0 0
rtoes 0
lfemur -4.1794 -6.15001 -10.6781
ltibia 23.3901
lfoot -25.5877 15.581
ltoes -53.8225
7
root -0.904423 18.6757 6.11934 1.24888 -4.10465 -4.47023
lowerback 4.46367 1.50473 1.81144
upperback -3.00845 2.19478 1.09172
thorax -5.60034 1.03882 -0.0844961
lowerneck -9.94256 -0.619017 1.89153
upperneck 25.9142 -1.35591 0.311287
head 9.82877 -0.412713 -0.367944
rclavicle 7.42958e-015 -1.98785e-015
rhumerus -51.5442 -5.12282 -85.1151
rradius 41.9538
rwrist 17.577
rhand -6.37654 -30.4272
rfingers 7.12502
rthumb 19.4704 -59.4723
lclavicle 7.42958e-015 -1.98785e-015
lhumerus -45.1116 5.22437 87.0569
lradius 36.7797
lwrist -14.1736
lhand -4.5328 -25.2478
lfingers 7.12502
lthumb 21.2423 3.60823
rfemur 0 0 0
rtibia 0
rfoot 0 0
rtoes 0
lfemur -4.18332 -6.10758 -10.7057
ltibia 23.3821
lfoot -25.5716 15.5704
ltoes -53.8668
8
root -0.904098 18.6755 6.1201 1.23451 -4.10342 -4.46116
lowerback 4.47163 1.50876 1.83115
upperback -3.00452 2.20042 1.06782
thorax -5.599 1.04036 -0.12097
lowerneck -9.93966 -0.623414 1.87993
upperneck 25.9066 -1.3728 0.362018
head 9.82599 -0.416097 -0.350106
rclavicle -1.13804e-014 -3.37934e-015
rhumerus -51.5568 -5.13883 -85.1285
rradius 41.9679
rwrist 17.5985
rhand -4.77219 -30.6328
rfingers 7.12502
rthumb 21.0123 -59.5145
lclavicle -1.13804e-014 -3.37934e-015
lhumerus -45.0881 5.21229 87.032
lradius 36.749
lwrist -14.1852
lhand -4.52987 -25.3096
lfingers 7.12502
lthumb 21.2451 3.5461
rfemur 0 0 0
rtibia 0
rfoot 0 0
rtoes 0
lfemur -4.15964 -6.12457 -10.72
ltibia 23.3684
lfoot -25.5691 15.5526
ltoes -53.792
9
root -0.904361 18.6751 6.1208 1.2263 -4.11117 -4.45306
lowerback 4.47126 1.52035 1.83632
upperback -2.99867 2.21533 1.05242
thorax -5.59162 1.04731 -0.141079
lowerneck -9.94402 -0.63463 1.89161
upperneck 25.8985 -1.39085 0.361426
head 9.82369 -0.423455 -0.354322
rclavicle -9.19379e-016 -1.03368e-014
rhumerus -51.5508 -5.18813 -85.114
rradius 41.9698
rwrist 17.6499
rhand -4.67843 -30.6239
rfingers 7.12502
rthumb 21.1024 -59.4956
lclavicle -9.19379e-016 -1.03368e-014
lhumerus -45.0629 5.17396 87.0363
lradius 36.7442
lwrist -14.1725
lhand -4.4907 -25.3036
lfingers 7.12502
lthumb 21.2827 3.54782
rfemur 0 0 0
rtibia 0
rfoot 0 0
rtoes 0
lfemur -4.13855 -6.19501 -10.7384
ltibia 23.3611
lfoot -25.6381 15.6178
ltoes -53.7469
10
root -0.904813 18.6751 6.12165 1.2373 -4.11293 -4.4501
lowerback 4.45155 1.51873 1.81931
upperback -2.998 2.21153 1.05467
thorax -5.5804 1.04626 -0.12831
lowerneck -9.97642 -0.638355 1.93847
upperneck 25.9349 -1.3922 0.30362
head 9.84213 -0.425519 -0.382991
rclavicle 2.31087e-015 9.54166e-015
rhumerus -51.5359 -5.23622 -85.0874
rradius 41.9653
rwrist 17.7577
rhand -6.15399 -30.3496
rfingers 7.12502
rthumb 19.6843 -59.373
lclavicle 2.31087e-015 9.54166e-015
lhumerus -45.0558 5.17812 87.0423
lradius 36.7459
lwrist -14.202
lhand -4.48956 -25.3199
lfingers 7.12502
lthumb 21.2838 3.53138
rfemur 0 0 0
rtibia 0
rfoot 0 0
rtoes 0
lfemur -4.14767 -6.15914 -10.7361
ltibia 23.3597
lfoot -25.6159 15.6554
ltoes -53.8439
11
root -0.904786 18.6749 6.12254 1.24287 -4.10575 -4.46143
lowerback 4.43727 1.51444 1.82193
upperback -3.00082 2.20589 1.05934
thorax -5.57536 1.04351 -0.124041
lowerneck -9.98708 -0.641849 1.9619
upperneck 25.9591 -1.39874 0.288246
head 9.85255 -0.427721 -0.393266
rclavicle -7.74018e-015 -7.35503e-015
rhumerus -51.5447 -5.2386 -85.0754
rradius 41.971
rwrist 17.7994
rhand -9.07779 -29.9378
rfingers 7.12502
rthumb 16.8716 -59.2249
lclavicle -7.74018e-015 -7.35503e-015
lhumerus -45.0637 5.19257 87.038
lradius 36.7389
lwrist -14.2485
lhand -4.50753 -25.3846
lfingers 7.12502
lthumb 21.2665 3.46865
rfemur 0 0 0
rtibia 0
rfoot 0 0
rtoes 0
lfemur -4.15348 -6.11493 -10.7188
ltibia 23.3591
lfoot -25.5469 15.6112
ltoes -53.861
12
root -0.90558 18.6743 6.1227 1.24792 -4.09824 -4.46291
lowerback 4.43262 1.51343 1.80805
upperback -3.00814 2.20371 1.06102
thorax -5.58099 1.04293 -0.114316
lowerneck -9.96508 -0.6436 1.9689
upperneck 25.9447 -1.40128 0.286064
head 9.84307 -0.428701 -0.395324
rclavicle -1.75303e-014 -6.55989e-015
rhumerus -51.5628 -5.23588 -85.0778
rradius 41.9804
rwrist 17.7975
rhand -10.5106 -29.7659
rfingers 7.12502
rthumb 15.4919 -59.1652
lclavicle -1.75303e-014 -6.55989e-015
lhumerus -45.0729 5.17063 87.0418
lradius 36.734
lwrist -14.2458
lhand -4.51383 -25.4239
lfingers 7.12502
lthumb 21.2605 3.4301
rfemur 0 0 0
rtibia 0
rfoot 0 0
rtoes 0
lfemur -4.15683 -6.12435 -10.7107
ltibia 23.3606
lfoot -25.562 15.5199
ltoes -53.744
13
root -0.906999 18.6748 6.12235 1.27404 -4.0765 -4.46335
lowerback 4.41162 1.50374 1.78923
upperback -3.01213 2.18914 1.06431
thorax -5.57415 1.03659 -0.0985106
lowerneck -9.97097 -0.639017 1.99497
upperneck 25.9262 -1.38758 0.238474
head 9.83698 -0.425344 -0.41481
rclavicle 3.91357e-015 9.93923e-016
rhumerus -51.5473 -5.23073 -85.0933
rradius 41.9822
rwrist 17.7943
rhand -10.5847 -29.7692
rfingers 7.12502
rthumb 15.4205 -59.174
lclavicle 3.91357e-015 9.93923e-016
lhumerus -45.0623 5.11202 87.0933
lradius 36.7327
lwrist -14.0167
lhand -4.82866 -25.2672
lfingers 7.12502
lthumb 20.958 3.62053
rfemur 0 0 0
rtibia 0
rfoot 0 0
rtoes 0
lfemur -4.19106 -6.0653 -10.6844
ltibia 23.3585
lfoot -25.56 15.411
ltoes -53.7462
14
root -0.906746 18.676 6.12264 1.28854 -4.06212 -4.43826
lowerback 4.39319 1.49676 1.76909
upperback -3.01065 2.17748 1.05653
thorax -5.56258 1.03157 -0.0937135
lowerneck -10.0068 -0.636496 1.9822
upperneck 25.9251 -1.3781 0.222525
head 9.84347 -0.423879 -0.417332
rclavicle 6.90777e-015 1.0138e-014
rhumerus -51.5334 -5.2122 -85.1072
rradius 41.9898
rwrist 17.7577
rhand -10.6115 -29.8012
rfingers 7.12502
rthumb 15.3947 -59.208
lclavicle 6.90777e-015 1.0138e-014
lhumerus -45.0627 5.06996 87.1552
lradius 36.7595
lwrist -13.763
lhand -5.11751 -25.038
lfingers 7.12502
lthumb 20.6805 3.88019
rfemur 0 0 0
rtibia 0
rfoot 0 0
rtoes 0
lfemur -4.21036 -6.03574 -10.7065
ltibia 23.3445
lfoot -25.5202 15.4238
ltoes -53.7998
15
root -0.905473 18.676 6.12362 1.27205 -4.06907 -4.38554
lowerback 4.39337 1.49879 1.73952
upperback -3.0016 2.17675 1.03293
thorax -5.55328 1.03197 -0.101457
lowerneck -10.0372 -0.632788 1.94697
upperneck 25.9416 -1.37819 0.266836
head 9.85595 -0.422094 -0.396089
rclavicle 1.5791e-014 9.54166e-015
rhumerus -51.5251 -5.23122 -85.1121
rradius 41.9967
rwrist 17.7519
rhand -10.5693 -29.8773
rfingers 7.12502
rthumb 15.4354 -59.281
lclavicle 1.5791e-014 9.54166e-015
lhumerus -45.0662 5.09877 87.1292
lradius 36.7892
lwrist -13.9245
lhand -4.81213 -25.0608
lfingers 7.12502
lthumb 20.9739 3.82512
rfemur 0 0 0
rtibia 0
rfoot 0 0
rtoes 0
lfemur -4.1852 -6.0709 -10.7839
ltibia 23.3258
lfoot -25.49 15.511
ltoes -53.8066
